<svg xmlns="http://www.w3.org/2000/svg" width="173.32" height="65.7" viewBox="0 0 173.32 65.7"><g id="Layer_2" data-name="Layer 2"><g id="Layer_1-2" data-name="Layer 1"><text transform="translate(38.5 55.75)" style="font-size:38px;fill:#fecb00;font-family:Gulax-Regular, Gulax"><tspan style="letter-spacing:-0.029990748355263157em">T</tspan><tspan x="16.15" y="0">ROPICO</tspan></text><path d="M33,39.8c0,2,0,3.73,0,5.51a.75.75,0,0,1-.35.6c-1.26,1-2.52,2-3.76,3.07-.32.28-.51.2-.79,0q-2.27-1.87-4.56-3.72a1.38,1.38,0,0,0-2.09,0c-1.49,1.21-3,2.41-4.43,3.65a.67.67,0,0,1-1,0c-1.4-1.19-2.83-2.34-4.25-3.51-1-.81-1.44-.82-2.45,0C7.81,46.55,6.34,47.74,4.9,49c-.3.25-.49.29-.8,0-1.24-1-2.5-2-3.75-3.07-.17-.14-.35-.25-.35-.52,0-1.81,0-3.61,0-5.58l3.15,2.58c1.08.89,1.54.9,2.63,0,1.41-1.14,2.83-2.27,4.2-3.46.42-.37.65-.29,1,0,1.45,1.22,2.92,2.4,4.38,3.59a1.48,1.48,0,0,0,2.22,0C19.07,41.35,20.54,40.17,22,39c.37-.31.6-.38,1,0,1.43,1.23,2.91,2.41,4.38,3.6a1.51,1.51,0,0,0,2.28,0C30.74,41.66,31.79,40.78,33,39.8Z" style="fill:#fecb00"/><path d="M33,49.26a24.7,24.7,0,0,1-.3,5.74,1.21,1.21,0,0,1-.46.72c-1.11.88-2.21,1.79-3.3,2.7a.5.5,0,0,1-.79,0c-1.49-1.25-3-2.47-4.5-3.69a1.43,1.43,0,0,0-2.21,0c-1.45,1.17-2.9,2.34-4.32,3.55-.43.36-.7.41-1.16,0-1.39-1.2-2.83-2.35-4.26-3.51-.93-.76-1.41-.77-2.33,0C7.86,56,6.37,57.17,4.9,58.4a.54.54,0,0,1-.85,0C3,57.49,1.9,56.61.81,55.74a1.48,1.48,0,0,1-.52-.93A26,26,0,0,1,0,49.25c1.06.87,2,1.65,3,2.45,1.26,1,1.64,1,2.91,0s2.78-2.26,4.15-3.41c.3-.25.48-.27.79,0,1.48,1.25,3,2.46,4.49,3.69a1.5,1.5,0,0,0,2.22,0c1.51-1.23,3-2.44,4.5-3.68a.53.53,0,0,1,.85,0c1.48,1.25,3,2.47,4.49,3.69a1.48,1.48,0,0,0,2.17,0Z" style="fill:#fecb00"/><path d="M1.55,31.61,3.38,33.1a1.46,1.46,0,0,0,2.22,0c1.49-1.21,3-2.41,4.44-3.65a.58.58,0,0,1,.91,0c1.47,1.23,3,2.44,4.44,3.64a1.44,1.44,0,0,0,2.22,0c1.49-1.21,3-2.41,4.44-3.64a.58.58,0,0,1,.92,0c1.46,1.23,3,2.43,4.43,3.64a1.46,1.46,0,0,0,2.22,0c.52-.42,1-.83,1.54-1.27.23-.2.35-.15.45.12a18.06,18.06,0,0,1,1.1,4,.65.65,0,0,1-.28.69c-1.18,1-2.37,1.91-3.53,2.89-.32.27-.51.22-.8,0-1.48-1.25-3-2.47-4.49-3.69a1.45,1.45,0,0,0-2.22,0C20,37,18.49,38.18,17.08,39.4a.75.75,0,0,1-1.17,0c-1.4-1.19-2.83-2.33-4.26-3.5-.91-.75-1.39-.76-2.33,0-1.47,1.19-2.94,2.38-4.38,3.6-.35.3-.55.3-.91,0-1.12-1-2.26-1.88-3.42-2.79a.74.74,0,0,1-.32-.81A17.21,17.21,0,0,1,1.55,31.61Z" style="fill:#fdcb00"/><path d="M4.14,61.84a1.85,1.85,0,0,0,1.51-.51C7.08,60.14,8.55,59,10,57.77c.44-.38.7-.3,1.09,0,1.42,1.2,2.87,2.37,4.32,3.55a1.47,1.47,0,0,0,2.28,0c1.48-1.21,3-2.41,4.43-3.64a.55.55,0,0,1,.86,0c1.42,1.2,2.88,2.36,4.32,3.54a1.85,1.85,0,0,0,1.57.6,13.31,13.31,0,0,1-5.46,3.23,12.76,12.76,0,0,1-4,.6,68.37,68.37,0,0,1-7.71-.15A13.43,13.43,0,0,1,4.14,61.84Z" style="fill:#fdcb00"/><path d="M30.06,29.07c0,.28-.3.37-.48.52-1,.87-1.06.87-2.09,0l-3.87-3.17a1.45,1.45,0,0,0-2.22,0c-1.48,1.21-3,2.41-4.44,3.64a.58.58,0,0,1-.92,0c-1.44-1.22-2.91-2.4-4.38-3.6a1.49,1.49,0,0,0-2.33,0C7.89,27.68,6.43,28.84,5,30c-.38.32-.61.4-1,0-1.16-1-1.2-1-.19-2.2a15.94,15.94,0,0,1,13.59-5.95,15.89,15.89,0,0,1,12.36,6.64l.25.36A.61.61,0,0,1,30.06,29.07Z" style="fill:#fecb00"/><path d="M16.51,0c.64,1.38,1.23,2.59,1.78,3.8a47.88,47.88,0,0,1,2.52,6.87c.11.39.11.61-.29.83A10,10,0,0,0,16.79,15c-.25.39-.38.32-.59,0a10.23,10.23,0,0,0-3.68-3.42.63.63,0,0,1-.36-.87A60.86,60.86,0,0,1,16.51,0Z" style="fill:#7db138"/><path d="M3.66,11.89c3.2.31,6.24.89,8.8,2.95a7.13,7.13,0,0,1,2.36,3.71c.12.43,0,.63-.43.68a18.09,18.09,0,0,0-5.3,1.37c-.25.1-.39.1-.47-.2a19.12,19.12,0,0,0-4.88-8.25S3.7,12,3.66,11.89Z" style="fill:#7db138"/><path d="M29.31,12a22.14,22.14,0,0,0-4.19,6.3c-.28.67-.5,1.38-.72,2.07-.09.29-.19.39-.5.25a18.07,18.07,0,0,0-5.31-1.37c-.5,0-.53-.27-.41-.68A7,7,0,0,1,20.32,15C22.9,12.81,26.05,12.23,29.31,12Z" style="fill:#7db138"/><path d="M23.58,10.14C23.2,9,22.82,7.83,22.43,6.68a.26.26,0,0,1,.14-.36A22.67,22.67,0,0,1,26.9,4.94,26.11,26.11,0,0,0,23.58,10.14Z" style="fill:#7db038"/><path d="M9.41,10.11A25.11,25.11,0,0,0,6.11,5a13.78,13.78,0,0,1,3,.82c1.54.51,1.53.52,1,2C9.89,8.59,9.66,9.35,9.41,10.11Z" style="fill:#7db038"/></g></g></svg>